<svg width="33" height="33" viewBox="0 0 33 33" fill="none" xmlns="http://www.w3.org/2000/svg">
<circle cx="16.5" cy="16.5" r="16" fill="white" stroke="black"/>
<path d="M15 26.5L5.53984 16L9 12L15 19L25 8L28 12M16.5 1C14.4645 1 12.449 1.40092 10.5684 2.17987C8.68786 2.95882 6.97915 4.10054 5.53984 5.53984C2.63303 8.44666 1 12.3891 1 16.5C1 20.6109 2.63303 24.5533 5.53984 27.4602C6.97915 28.8995 8.68786 30.0412 10.5684 30.8201C12.449 31.5991 14.4645 32 16.5 32C20.6109 32 24.5533 30.367 27.4602 27.4602C30.367 24.5533 32 20.6109 32 16.5C32 14.4645 31.5991 12.449 30.8201 10.5684C30.0412 8.68786 28.8995 6.97915 27.4602 5.53984C26.0208 4.10054 24.3121 2.95882 22.4316 2.17987C20.551 1.40092 18.5355 1 16.5 1Z" fill="#00465F"/>
</svg>
