<svg width="33" height="33" viewBox="0 0 33 33" fill="none" xmlns="http://www.w3.org/2000/svg">
<circle cx="16.5" cy="16.5" r="16" fill="white" stroke="black"/>
<path d="M30.7755 10.4705C29.9592 8.5795 28.8535 6.9365 27.4585 5.5415C26.0635 4.1465 24.4205 3.04083 22.5295 2.2245C20.6385 1.40817 18.6287 1 16.5 1C15.074 1 13.6997 1.186 12.377 1.558C11.0543 1.93 9.8195 2.45183 8.6725 3.1235C7.5255 3.79517 6.48183 4.60117 5.5415 5.5415C4.60117 6.48183 3.79517 7.5255 3.1235 8.6725C2.45183 9.8196 1.93 11.0543 1.558 12.377C1.186 13.6997 1 15.074 1 16.5C1 17.926 1.186 19.3003 1.558 20.623C1.93 21.9456 2.45183 23.1803 3.1235 24.3275C3.79517 25.4745 4.60117 26.5182 5.5415 27.4585C6.48183 28.3988 7.5255 29.2049 8.6725 29.8765C9.8195 30.5482 11.0543 31.07 12.377 31.442C13.6997 31.814 15.074 32 16.5 32C17.926 32 19.3003 31.814 20.623 31.442C21.9456 31.0699 23.1804 30.5482 24.3276 29.8765C25.4746 29.2049 26.5183 28.3988 27.4586 27.4585C28.3989 26.5182 29.205 25.4745 29.8766 24.3275C30.5482 23.1804 31.07 21.9456 31.4421 20.6229C31.814 19.3003 32 17.926 32 16.5C32 14.3713 31.5918 12.3615 30.7755 10.4705ZM24.715 20.84C24.8183 20.9433 24.8702 21.057 24.8702 21.181C24.8702 21.305 24.8184 21.4083 24.715 21.491L21.677 24.56C21.5944 24.6427 21.4807 24.684 21.336 24.684C21.1914 24.684 21.0881 24.6427 21.026 24.56L16.655 20.189L12.315 24.56C12.191 24.6427 12.0773 24.684 11.974 24.684C11.8913 24.684 11.788 24.6427 11.664 24.56L8.626 21.491C8.52267 21.4289 8.471 21.3255 8.471 21.181C8.471 21.057 8.52267 20.9433 8.626 20.84L12.966 16.5L8.626 12.16C8.52267 12.0567 8.471 11.943 8.471 11.819C8.471 11.6743 8.52267 11.571 8.626 11.509L11.664 8.44C11.7467 8.35733 11.85 8.316 11.974 8.316C12.098 8.316 12.2117 8.35733 12.315 8.44L16.655 12.811L21.026 8.44C21.1088 8.35733 21.2122 8.316 21.336 8.316C21.46 8.316 21.5737 8.35733 21.677 8.44L24.715 11.509C24.8183 11.5917 24.8702 11.695 24.8702 11.819C24.8702 11.943 24.8184 12.0567 24.715 12.16L20.375 16.5L24.715 20.84Z" fill="#5F0000"/>
</svg>
