<svg width="31" height="31" viewBox="0 0 31 31" fill="none" xmlns="http://www.w3.org/2000/svg">
<g clip-path="url(#clip0_101_41)">
<path d="M29.7755 9.4705C28.9592 7.5795 27.8535 5.9365 26.4585 4.5415C25.0635 3.1465 23.4205 2.04083 21.5295 1.2245C19.6385 0.408167 17.6287 0 15.5 0C14.074 0 12.6997 0.186 11.377 0.558C10.0543 0.93 8.8195 1.45183 7.6725 2.1235C6.5255 2.79517 5.48183 3.60117 4.5415 4.5415C3.60117 5.48183 2.79517 6.5255 2.1235 7.6725C1.45183 8.8196 0.93 10.0543 0.558 11.377C0.186 12.6997 0 14.074 0 15.5C0 16.926 0.186 18.3003 0.558 19.623C0.93 20.9456 1.45183 22.1803 2.1235 23.3275C2.79517 24.4745 3.60117 25.5182 4.5415 26.4585C5.48183 27.3988 6.5255 28.2049 7.6725 28.8765C8.8195 29.5482 10.0543 30.07 11.377 30.442C12.6997 30.814 14.074 31 15.5 31C16.926 31 18.3003 30.814 19.623 30.442C20.9456 30.0699 22.1804 29.5482 23.3276 28.8765C24.4746 28.2049 25.5183 27.3988 26.4586 26.4585C27.3989 25.5182 28.205 24.4745 28.8766 23.3275C29.5482 22.1804 30.07 20.9456 30.4421 19.6229C30.814 18.3003 31 16.926 31 15.5C31 13.3713 30.5918 11.3615 29.7755 9.4705ZM23.715 19.84C23.8183 19.9433 23.8702 20.057 23.8702 20.181C23.8702 20.305 23.8184 20.4083 23.715 20.491L20.677 23.56C20.5944 23.6427 20.4807 23.684 20.336 23.684C20.1914 23.684 20.0881 23.6427 20.026 23.56L15.655 19.189L11.315 23.56C11.191 23.6427 11.0773 23.684 10.974 23.684C10.8913 23.684 10.788 23.6427 10.664 23.56L7.626 20.491C7.52267 20.4289 7.471 20.3255 7.471 20.181C7.471 20.057 7.52267 19.9433 7.626 19.84L11.966 15.5L7.626 11.16C7.52267 11.0567 7.471 10.943 7.471 10.819C7.471 10.6743 7.52267 10.571 7.626 10.509L10.664 7.44C10.7467 7.35733 10.85 7.316 10.974 7.316C11.098 7.316 11.2117 7.35733 11.315 7.44L15.655 11.811L20.026 7.44C20.1088 7.35733 20.2122 7.316 20.336 7.316C20.46 7.316 20.5737 7.35733 20.677 7.44L23.715 10.509C23.8183 10.5917 23.8702 10.695 23.8702 10.819C23.8702 10.943 23.8184 11.0567 23.715 11.16L19.375 15.5L23.715 19.84Z" fill="#5F0000"/>
</g>
<defs>
<clipPath id="clip0_101_41">
<rect width="31" height="31" fill="white"/>
</clipPath>
</defs>
</svg>
