<svg width="31" height="32" viewBox="0 0 31 32" fill="none" xmlns="http://www.w3.org/2000/svg">
<g clip-path="url(#clip0_103_321)">
<path d="M0.143555 15.6148C0.143555 7.1185 7.06115 0.229614 15.5287 0.229614C24.025 0.229614 30.9139 7.1185 30.9139 15.6148C30.9139 24.1111 24.0537 31 15.5287 31C7.06115 31 0.143555 24.1111 0.143555 15.6148ZM10.9936 12.9454V15.1842H12.9167V23.6805H10.9936V25.9194H20.0352V23.6805H18.1408V15.1842H20.0352V12.9454H10.9936ZM12.3139 8.58239C12.3139 10.362 13.7778 11.8259 15.5574 11.8259C17.3371 11.8259 18.801 10.3907 18.801 8.58239C18.801 6.80276 17.3371 5.33887 15.5574 5.33887C13.7491 5.33887 12.3139 6.80276 12.3139 8.58239Z" fill="black"/>
</g>
<defs>
<clipPath id="clip0_103_321">
<rect width="31" height="31.287" fill="white"/>
</clipPath>
</defs>
</svg>
