<svg width="36" height="26" viewBox="0 0 36 26" fill="none" xmlns="http://www.w3.org/2000/svg">
<g clip-path="url(#clip0_1_26)">
<path d="M32.8303 3.60843C32.764 3.51957 32.6809 3.44465 32.5857 3.38793C32.4904 3.33122 32.3849 3.29382 32.2752 3.27789C32.1655 3.26196 32.0538 3.2678 31.9463 3.29508C31.8389 3.32235 31.7379 3.37054 31.6491 3.43687L18.0394 13.5956C17.9907 13.6321 17.9315 13.6519 17.8706 13.6519C17.8098 13.6519 17.7506 13.6321 17.7019 13.5956L4.35938 3.39187C4.27129 3.32465 4.17082 3.27544 4.06372 3.24704C3.95661 3.21865 3.84496 3.21163 3.73514 3.22639C3.62532 3.24114 3.51948 3.27738 3.42367 3.33304C3.32785 3.3887 3.24394 3.46269 3.17672 3.55078C3.1095 3.63886 3.06029 3.73933 3.0319 3.84644C3.0035 3.95354 2.99648 4.0652 3.01124 4.17502C3.02599 4.28484 3.06224 4.39067 3.11789 4.48649C3.17355 4.5823 3.24754 4.66621 3.33563 4.73343L13.8263 12.7575L3.45094 20.5762C3.36156 20.6429 3.28618 20.7265 3.22912 20.8223C3.17205 20.9181 3.13442 21.0242 3.11835 21.1346C3.10229 21.2449 3.10812 21.3573 3.13551 21.4654C3.1629 21.5735 3.2113 21.6751 3.27797 21.7645C3.34464 21.8539 3.42826 21.9293 3.52405 21.9863C3.61985 22.0434 3.72595 22.0811 3.83629 22.0971C3.94663 22.1132 4.05906 22.1073 4.16715 22.08C4.27523 22.0526 4.37687 22.0042 4.46625 21.9375L15.2184 13.8206L16.6753 14.9456C17.015 15.2056 17.4302 15.3479 17.858 15.351C18.2857 15.354 18.7029 15.2177 19.0463 14.9625L20.5763 13.8206L31.455 21.9375C31.5438 22.0038 31.6448 22.0519 31.7523 22.0792C31.8597 22.1065 31.9715 22.1123 32.0812 22.0964C32.1908 22.0804 32.2963 22.043 32.3916 21.9864C32.4868 21.9297 32.57 21.8548 32.6363 21.7659C32.7026 21.6771 32.7507 21.5761 32.778 21.4687C32.8052 21.3612 32.811 21.2495 32.7951 21.1398C32.7792 21.0301 32.7418 20.9246 32.6851 20.8294C32.6284 20.7341 32.5535 20.651 32.4647 20.5847L21.9853 12.7547L32.6588 4.78124C32.8358 4.64756 32.953 4.44954 32.9852 4.23004C33.0173 4.01054 32.9616 3.78722 32.8303 3.60843Z" fill="white"/>
<path d="M31.7812 0H4.21875C3.09987 0 2.02681 0.444474 1.23564 1.23564C0.444474 2.02681 0 3.09987 0 4.21875L0 21.0938C0 22.2126 0.444474 23.2857 1.23564 24.0769C2.02681 24.868 3.09987 25.3125 4.21875 25.3125H31.7812C32.9001 25.3125 33.9732 24.868 34.7644 24.0769C35.5555 23.2857 36 22.2126 36 21.0938V4.21875C36 3.09987 35.5555 2.02681 34.7644 1.23564C33.9732 0.444474 32.9001 0 31.7812 0ZM34.3125 21.0938C34.3125 21.7651 34.0458 22.4089 33.5711 22.8836C33.0964 23.3583 32.4526 23.625 31.7812 23.625H4.21875C3.54742 23.625 2.90359 23.3583 2.42889 22.8836C1.95418 22.4089 1.6875 21.7651 1.6875 21.0938V4.21875C1.6875 3.54742 1.95418 2.90359 2.42889 2.42889C2.90359 1.95418 3.54742 1.6875 4.21875 1.6875H31.7812C32.4526 1.6875 33.0964 1.95418 33.5711 2.42889C34.0458 2.90359 34.3125 3.54742 34.3125 4.21875V21.0938Z" fill="white"/>
</g>
<defs>
<clipPath id="clip0_1_26">
<rect width="36" height="25.3125" fill="white"/>
</clipPath>
</defs>
</svg>
