<svg width="150" height="150" viewBox="0 0 150 150" fill="none" xmlns="http://www.w3.org/2000/svg">
<circle cx="75" cy="75" r="75" fill="white"/>
<g clip-path="url(#clip0_1_44)">
<path d="M74.9205 77.3519C50.655 77.3976 30.5814 96.6093 29.3691 120.888C29.3368 121.577 29.4451 122.265 29.6873 122.911C29.9295 123.557 30.3006 124.147 30.778 124.644C31.2554 125.142 31.8291 125.538 32.4642 125.807C33.0993 126.076 33.7825 126.213 34.4723 126.209H115.567C116.254 126.207 116.933 126.066 117.563 125.795C118.193 125.524 118.762 125.127 119.236 124.63C119.709 124.133 120.076 123.545 120.316 122.902C120.556 122.259 120.663 121.573 120.631 120.888C119.417 96.5785 99.2963 77.3546 75 77.3519H74.9205Z" fill="#00465F"/>
<path d="M75.0017 23.7905C62.1387 23.7905 51.6521 34.3265 51.652 47.2037C51.6519 60.081 62.1386 70.6533 75.0017 70.6533C87.8647 70.6533 98.3877 60.081 98.3876 47.2037C98.3875 34.3265 87.8646 23.7905 75.0017 23.7905Z" fill="#00465F"/>
</g>
<defs>
<clipPath id="clip0_1_44">
<rect width="92" height="104" fill="white" transform="translate(29 23)"/>
</clipPath>
</defs>
</svg>
